<?xml version="1.0" encoding="utf-8"?>
<!-- Generator: Adobe Illustrator 22.1.0, SVG Export Plug-In . SVG Version: 6.00 Build 0)  -->
<svg version="1.1" id="Layer_1" xmlns="http://www.w3.org/2000/svg" xmlns:xlink="http://www.w3.org/1999/xlink" x="0px" y="0px"
	 viewBox="0 0 623.6 260.5" style="enable-background:new 0 0 623.6 260.5;" xml:space="preserve">
<style type="text/css">
	.st0{fill:#FFFFFF;}
</style>
<title>JT_Logos_Minton Hollins</title>
<path class="st0" d="M353.9,52.2c0.6-1.2,1.7-2,2.5-1.6c0.8,0.3,0.9,1.7,0.5,3c-0.5,1.2-1.7,2-2.5,1.6
	C353.5,54.8,353.3,53.6,353.9,52.2 M344.6,47c-0.2,1.1,0.5,2,1.6,2.2s2-0.5,2.2-1.6c0.2-1.1-0.5-2-1.6-2.2
	C345.7,45.3,344.7,45.9,344.6,47L344.6,47 M341.3,45.9c0.5-1.6,2.8-2.2,5-1.6c2.2,0.6,3.7,2.7,3.1,4.2c-0.6,1.6-2.8,2.2-5,1.6
	C342.1,49.5,340.7,47.5,341.3,45.9 M327.7,42.8c0,1.1,0.8,1.9,1.9,2c1.1,0,1.9-0.8,2-1.9c0-1.1-0.8-1.9-1.9-2l0,0
	C328.7,41,327.7,41.7,327.7,42.8L327.7,42.8 M324.3,42.2c0.3-1.7,2.5-2.7,4.7-2.2c2.3,0.5,4.1,2.2,3.7,3.7c-0.3,1.6-2.5,2.7-4.8,2.2
	C325.7,45.5,324,43.8,324.3,42.2 M269,52.2c0.6,1.2,0.5,2.7-0.5,3c-0.8,0.3-1.9-0.3-2.5-1.6c-0.6-1.2-0.5-2.7,0.5-3
	C267.2,50.3,268.3,50.9,269,52.2 M278.3,47c-0.2-1.1-1.2-1.7-2.2-1.6c-0.9,0.2-1.6,1.1-1.6,2c0.2,1.1,1.2,1.7,2.2,1.6
	C277.8,48.9,278.5,48.1,278.3,47 M281.6,45.9c0.5,1.6-0.9,3.4-3.1,4.2s-4.5,0-5-1.6s0.9-3.4,3.1-4.2
	C278.8,43.6,281.1,44.4,281.6,45.9 M295.2,42.8c0-1.1-0.8-1.9-1.9-2c-1.1,0-1.9,0.8-2,1.9c0,1.1,0.8,1.9,1.9,2l0,0
	C294.2,44.7,295,43.9,295.2,42.8 M298.6,42.2c0.3,1.7-1.4,3.3-3.7,3.7c-2.3,0.5-4.4-0.6-4.8-2.2c-0.3-1.6,1.4-3.3,3.7-3.7
	C296.1,39.5,298.1,40.6,298.6,42.2 M303.4,44.2c0,0,1.2,2.2,6.2,2.8c-10,0.3-19.8,1.7-29.3,4.4c5.1-2,5.8-5.3,5.8-5.3s2.3,3.3,9.4,2
	C303.1,46.7,303.4,44.1,303.4,44.2 M315.3,53l-3.9,2.2l-3.9-2.2l3.9-2.2L315.3,53z M278.6,58.4L276,62l-4.4-0.3l2.7-3.6L278.6,58.4z
	 M297,54.1l-3.4,2.8l-4.2-1.4l3.4-2.7L297,54.1z M305.4,50.9c0,0.2-0.2,0.5-0.5,0.5c-0.3,0-0.5-0.2-0.5-0.5c0-0.2,0.2-0.5,0.5-0.5
	l0,0C305.3,50.5,305.4,50.8,305.4,50.9 M303.9,53c0,0.2-0.2,0.5-0.5,0.5s-0.5-0.2-0.5-0.5c0-0.2,0.2-0.5,0.5-0.5l0,0
	C303.7,52.5,303.9,52.8,303.9,53 M305.9,54.4c0,0.2-0.2,0.5-0.5,0.5s-0.5-0.2-0.5-0.5s0.2-0.5,0.5-0.5l0,0
	C305.8,54.1,305.9,54.2,305.9,54.4 M286.6,54.1c0,0.2-0.2,0.5-0.3,0.5c-0.2,0-0.5,0-0.5-0.3l0,0c0-0.2,0-0.5,0.3-0.5
	C286.3,53.6,286.4,53.7,286.6,54.1L286.6,54.1 M285.3,56.4c0,0.2-0.2,0.5-0.3,0.5c-0.2,0-0.5,0-0.5-0.3l0,0c0-0.2,0.2-0.5,0.3-0.5
	l0,0C285.2,56.1,285.3,56.1,285.3,56.4 M287.5,57.3c0,0.2,0,0.5-0.3,0.5l0,0c-0.2,0-0.5,0-0.5-0.3l0,0c0-0.2,0-0.5,0.3-0.5l0,0
	C287.4,57,287.5,57.2,287.5,57.3 M269.4,60.8c0,0.2,0,0.5-0.3,0.5c-0.2,0-0.5,0-0.5-0.3l0,0c-0.2-0.2,0-0.5,0.2-0.5l0,0
	C269.1,60.4,269.3,60.6,269.4,60.8C269.3,60.8,269.4,60.8,269.4,60.8 M268.5,63.3c0.2,0.2,0,0.5-0.2,0.5l0,0c-0.2,0-0.5,0-0.5-0.2
	c0-0.2,0-0.5,0.3-0.5C268.2,62.9,268.3,63.1,268.5,63.3L268.5,63.3 M270.8,63.9c0,0.2,0,0.5-0.3,0.5l0,0c-0.2,0.2-0.5,0-0.5-0.2l0,0
	c0-0.2,0-0.5,0.3-0.5l0,0C270.5,63.6,270.8,63.7,270.8,63.9 M344.3,58.3l4.4-0.3l2.7,3.6l-4.4,0.3L344.3,58.3z M325.9,53.9l4.2-1.4
	l3.4,2.7l-4.2,1.4L325.9,53.9z M317.3,50.8c0-0.2,0.2-0.5,0.5-0.5s0.5,0.2,0.5,0.5c0,0.2-0.2,0.5-0.5,0.5l0,0
	C317.5,51.2,317.3,51.1,317.3,50.8 M319,52.8c0-0.2,0.2-0.5,0.5-0.5s0.5,0.2,0.5,0.5s-0.2,0.5-0.5,0.5l0,0
	C319.2,53.3,319,53.1,319,52.8 M317,54.2c0-0.2,0.2-0.5,0.5-0.5c0.3,0,0.5,0.2,0.5,0.5c0,0.2-0.2,0.5-0.5,0.5l0,0
	C317.1,54.7,317,54.5,317,54.2 M336.3,53.9c0-0.2,0.2-0.3,0.5-0.3c0.2,0,0.3,0.2,0.3,0.5c0,0,0,0,0,0.2c0,0.2-0.2,0.3-0.5,0.3l0,0
	C336.3,54.4,336.3,54.2,336.3,53.9 M337.4,56.2c0-0.2,0.3-0.3,0.5-0.3c0.2,0,0.3,0.3,0.3,0.5l0,0c0,0.2-0.3,0.3-0.5,0.3l0,0
	C337.6,56.7,337.4,56.5,337.4,56.2 M335.2,57.2c0-0.2,0.3-0.3,0.5-0.3s0.3,0.3,0.3,0.5l0,0c0,0.2-0.2,0.3-0.5,0.3l0,0
	C335.4,57.6,335.2,57.5,335.2,57.2L335.2,57.2 M353.5,60.8c0-0.2,0.3-0.3,0.5-0.3l0,0c0.2,0,0.3,0.3,0.2,0.5l0,0
	c0,0.2-0.3,0.3-0.5,0.3l0,0C353.5,61.1,353.5,60.9,353.5,60.8 M354.4,63.1c0-0.2,0.3-0.3,0.5-0.3l0,0c0.2,0.2,0.3,0.3,0.3,0.5
	c-0.2,0.2-0.3,0.3-0.5,0.2l0,0C354.4,63.6,354.3,63.4,354.4,63.1L354.4,63.1 M351.9,63.9c0.2-0.2,0.3-0.3,0.5-0.3s0.3,0.3,0.3,0.5
	l0,0c0,0.2-0.3,0.3-0.5,0.3l0,0C351.9,64.2,351.9,64,351.9,63.9L351.9,63.9 M309.5,46.9h3.1h1.4c2.5,0,4.8-1.2,6.2-3.3
	c1.9,2.7,4.8,4.2,8,4.4c7.2,1.1,9-1.9,9-1.9s0,3.7,7,5.8c5.5,1.6,7.5,0,7.5,0s-0.3,1.4,1.2,3.3c1.1,1.1,2.5,1.6,3.9,1.4
	c1.6,0,2.8-1.2,2.8-2.8l0,0c0-2.8-5.6-6.5-8-7.8c-9.7-5-23.4-8.1-38.5-8.4c2.2,1.1,3,3.9,1.7,5.9c-1.1,2.2-3.9,3-5.9,1.7
	c-2.2-1.1-3-3.9-1.7-5.9c0.5-0.8,1.1-1.4,1.7-1.7c-15,0.3-28.8,3.3-38.5,8.4c-2.2,1.1-8,4.8-8,7.8c0,1.6,1.2,2.8,2.8,2.8l0,0
	c2,0.2,3.9-0.6,5.1-2.2c0.6-0.8,0.9-1.7,0.8-2.8c0,0,1.1,1.4,5.6,0.3c0.6-0.2,1.4-0.3,2-0.6l0.9-0.3
	C289.9,48.6,299.7,47.2,309.5,46.9 M399.9,66.7v90.4H223.6V66.7h39.6c-0.3-0.5-0.6-0.9-0.9-1.4c-0.8-1.6-0.8-3.4-0.2-5.1
	c0.3-0.6,0.6-1.2,0.9-1.9c-1.6-0.9-2.5-2.7-2.5-4.4c0-0.5,0.2-0.9,0.3-1.6c-0.5-0.3-0.9-0.6-1.2-1.2c0-0.2-0.2-0.3-0.3-0.3
	c-0.6-0.6-1.2-1.4-1.7-2.2c-0.3-0.6-0.8-1.1-1.1-1.7c-1.2-1.6-1.9-3.4-1.7-5.3c-0.6-0.2-1.2-0.3-1.7-0.8c-1.2-0.9-1.7-2.7-1.1-4.2
	c-1.7-1.1-3.1-2.5-4.1-4.2c-0.8-1.4-1.4-2.8-1.7-4.4c-0.6-2.7-1.6-5-3-7.3c-0.9-1.7-2.2-3.3-3.6-4.7l-4.5-3.6l5.3-0.6
	c4.4-0.5,8.7,0.9,12.2,3.7c1.4,1.1,2.5,2.5,3,4.2c1.1-0.8,2.3-1.4,3.7-1.6c4.8-0.9,9.5,2.3,10.4,7.2c0.2,0.9,0.2,1.9,0,2.8
	c0.3-0.6,0.6-1.2,1.2-1.6l-0.2-0.3c-0.3-0.5-0.3-1.1-0.3-1.6c0-0.3,0-0.8,0.2-1.1c0.5-1.1,1.4-1.9,2.5-2.2c0-0.3,0-0.5,0-0.8
	c0-0.9,0.5-1.9,1.2-2.5c0.5-0.3,0.9-0.6,1.4-0.8c-0.2-0.3-0.2-0.6-0.2-1.1c0-2.3,1.9-4.2,4.2-4.2c1.9,0,3.6,1.2,4.1,3.1
	c0.6-0.2,1.2-0.2,1.9,0c0.9,0.3,1.9,0.9,2.2,2c0.2,0,0.5,0,0.6,0c0.9,0,1.9,0.3,2.5,0.9c0.6,0.6,0.9,1.6,0.9,2.5
	c0.3,0.2,0.6,0.5,1.1,0.6c0.8,0.5,1.4,1.2,1.7,2.2c0.5-0.2,1.1-0.3,1.6-0.3c-0.5-0.9-0.6-1.9-0.6-3c0-4.4,2.5-9.2,8-9.2
	c0.3,0,0.6,0,0.9,0c-0.2-0.9-0.3-1.9-0.3-2.7c0.2-1.9,1.1-3.7,2.3-5c1.4-1.7,2.8-3.3,4.8-3.3s3.4,1.6,4.8,3.3c1.4,1.4,2.2,3.1,2.3,5
	c0,0.9-0.2,1.9-0.3,2.7c0.3,0,0.6,0,0.9,0c5.5,0,8,4.8,8,9.2c0,1.1-0.2,2-0.6,3c0.6,0,1.1,0,1.6,0.3c0.5-1.2,1.4-2.3,2.8-2.7
	c0-0.9,0.3-1.9,0.9-2.7c0.6-0.6,1.6-0.9,2.5-0.9c0.2,0,0.5,0,0.6,0c0.5-0.9,1.2-1.7,2.2-2c0.6-0.2,1.2-0.2,1.9,0
	c0.6-2.2,2.8-3.6,5-3c1.9,0.5,3.1,2.2,3.1,4.1c0,0.3,0,0.6,0,0.8c0.5,0.3,0.9,0.6,1.4,0.9c0.8,0.6,1.1,1.4,1.2,2.3
	c0,0.3,0,0.6,0,0.9c1.1,0.3,2,1.1,2.5,2.2c0.2,0.3,0.2,0.8,0.2,1.1c0,0.5-0.2,1.1-0.3,1.6l-0.2,0.3c0.5,0.3,0.8,0.8,1.1,1.2
	c0,0.2,0.2,0.3,0.2,0.5c-0.2-0.9-0.2-1.9,0-2.8c0.9-4.8,5.6-8.1,10.4-7.2c1.4,0.3,2.7,0.8,3.7,1.6c0.6-1.7,1.6-3.1,3-4.2
	c3.3-2.8,7.6-4.2,12-3.9l5.5,0.5l-4.7,3.9c-1.4,1.4-2.7,3-3.6,4.7c-1.4,2.2-2.5,4.7-3,7.3c-0.3,1.6-0.9,3-1.7,4.4
	c-1.1,1.7-2.5,3.1-4.1,4.2c0.6,1.4,0.2,3.1-1.1,4.2c-0.5,0.3-1.1,0.6-1.7,0.8c0.2,1.9-0.5,3.7-1.7,5.3c-0.5,0.5-0.8,1.1-1.1,1.7
	c-0.5,0.8-1.1,1.6-1.7,2.2c-0.2,0.2-0.2,0.2-0.3,0.3c-0.3,0.5-0.8,0.9-1.2,1.2c0.2,0.5,0.3,0.9,0.3,1.6c0,1.7-0.9,3.4-2.5,4.4
	c0.5,0.6,0.8,1.2,0.9,1.9c0.6,1.7,0.6,3.6-0.2,5.1c-0.2,0.5-0.5,0.9-0.9,1.4H399.9z M305.9,32.5c-5.6,0-7.8-2.2-8.6-4.1
	c0.5-0.6,0.5-1.4,0.3-2c-0.3-0.8-1.2-1.2-2.2-0.9c-0.8,0.3-1.2,1.2-0.9,2.2c0.2,0.5,0.5,0.8,0.9,1.1c-0.2,0.8-0.5,1.6-0.9,2.3
	c-0.9,1.4-2.3,2.3-4.1,2.3c-2.5,0-4.8-1.4-6.1-3.6c0.5-1.1,0.5-2.3,0-3.4c-0.6-1.7-2-2.8-3-2.5s-1.2,2.2-0.6,3.9
	c0.3,0.9,1.1,1.9,1.9,2.3c-0.3,2.3-1.7,4.4-3.7,5.6c-1.1,0.8-2.3,1.2-3.7,0.9c-1.4-0.3-2.7-0.9-3.7-2c0-0.3,0-0.6-0.2-0.9
	c-0.3-0.9-1.1-1.6-1.7-1.2s-0.8,1.2-0.5,2.2c0.2,0.5,0.5,0.8,0.8,1.1c0.2,0.5,0.2,0.8,0.2,1.2c0,0.3,0,0.6-0.2,0.9
	c-0.8,2.3-2.5,4.4-4.7,5.5c-0.2,0.2-0.3,0.3-0.3,0.6c0,0.2,0,0.3,0,0.5c0.2,0.3,0.6,0.5,0.9,0.3l0,0c2.5-1.4,4.5-3.7,5.3-6.5
	c0.2-0.5,0.2-0.9,0.2-1.2c1.1,0.6,2.2,1.1,3.4,1.4c1.7,0.3,3.6-0.2,4.8-1.2c1.9-1.2,3.3-3.1,4.1-5.1c1.6,2,4.1,3.1,6.5,3.1
	c2.2,0,4.2-1.1,5.3-3c0.3-0.5,0.6-1.1,0.8-1.7c0.3,0.3,0.5,0.6,0.8,0.9c2.3,2,5.3,3,8.4,2.8c0.5,0,0.6-0.5,0.6-0.9
	C306.4,32.8,306.2,32.5,305.9,32.5 M240.7,14c0.8,0.8,1.1,0.5,4.4,5.5c3.3,5,3.1,9.4,4.7,11.7c1.6,2.3,3.1,3.7,4.1,3.7
	c1.9,0,0.9-1.9-0.3-3.1c-2.5-2.5-0.2-6.5-0.2-9.7c0-0.5,0.6-2.3-2.3-4.8C248.2,14.8,244.5,13.7,240.7,14 M257.1,41.1
	c-0.2,1.4,0.2,3,0.9,4.2c1.1,1.1,1.9,3,2.8,3.9s0.6,1.4,1.6,0.9c0.9-0.6,0.8-1.4,0.8-2.5c0.2-1.2-0.2-2.5-0.6-3.6
	c-0.8-1.4-0.6-1.2-2-2c-1.6-0.6-1.4-2-2.8-2C257.3,40,257.1,41.1,257.1,41.1 M262.7,41.3c0.6,0.3,0.3,0.5,0.8,0.5
	c1.2-0.2,2.3-0.6,3-1.6c0.6-0.6,1.1-2.5,0.6-3.1c-0.5-0.5-1.2-0.8-2.8-0.2c-0.9,0.3-1.9,0.5-2.8,0.3c-0.9,0-1.2,0.9-1.2,1.9
	c0.2,0.8,0.6,1.6,1.2,2C262.1,41.4,262.6,41.1,262.7,41.3 M275,41.1c-0.2-0.5-1.1-0.6-1.9-0.2s-1.2,1.1-1.1,1.6
	c0.2,0.5,1.1,0.6,1.9,0.2S275.2,41.6,275,41.1 M298.6,34.7c0-0.5-0.9-0.8-1.7-0.6c-0.8,0.2-1.6,0.6-1.4,1.2c0.2,0.6,0.9,0.8,1.7,0.6
	C298.1,35.8,298.7,35.2,298.6,34.7 M286.9,36.9c-0.2-0.8-1.4-1.1-2.7-0.8s-2.2,1.2-2,2s1.4,1.1,2.7,0.8S287,37.7,286.9,36.9
	 M281.6,20.8c0-0.3,0-3.4,0-4.7c0-0.2,0-0.3,0-0.3c-0.3-0.9-1.2-1.6-2.2-1.2c-0.9,0.3-1.4,1.1-1.2,2c0,0.2,0.2,0.3,0.2,0.5
	c0.3,0.9,1.4,3.3,1.7,4.2s0.6,0.9,1.1,0.9C281.4,22.1,281.7,21.5,281.6,20.8 M277.8,29.3c0.5-0.2,0.8-0.6,0.8-1.1
	c-0.2-0.3-0.6-0.6-1.1-0.5c-0.6,0-3.1,0.3-3.9,0.3h-0.5c-0.8,0.3-1.2,1.1-1.1,2c0.3,0.8,1.1,1.2,1.9,1.1l0.3-0.2
	C275.2,30.5,277.7,29.4,277.8,29.3 M279.6,31c0.3-0.3,0.3-0.8,0-0.9c-0.3-0.3-0.8-0.3-0.9,0c-0.5,0.5-2.2,1.4-2.7,1.7l-0.3,0.2
	c-0.5,0.5-0.5,1.2,0,1.7l0,0c0.5,0.5,1.2,0.5,1.9,0l0.2-0.3C278.2,32.8,279.4,31.1,279.6,31 M277.1,26c0.3,0.2,0.6,0,0.9-0.3
	c0-0.3-0.2-0.6-0.5-0.8c-0.5-0.2-2-0.9-2.7-1.2l-0.3-0.2c-0.6-0.2-1.2,0.2-1.6,0.8c-0.2,0.6,0.2,1.2,0.8,1.4l0,0h0.3L277.1,26
	 M278.5,23.3c0.3,0.3,0.8,0.3,0.9,0.2c0.2-0.2,0.2-0.6,0-0.9c-0.2-0.3-1.2-2-1.6-2.5c-0.3-0.5-1.4-0.8-1.9-0.5
	c-0.5,0.5-0.5,1.1,0,1.6l0,0L278.5,23.3 M303.6,13.2c-4.4,0-5.6,4.2-5.6,6.9s2.8,6.4,5,5c-1.1-0.5-1.6-1.7-1.1-3
	c0.2-0.2,0.2-0.3,0.3-0.5c0.9-1.6,0.6-1.9,5.1-1.6C309.3,20.1,308.4,13.2,303.6,13.2 M261.2,26c2.7-0.2,5,1.9,5.3,4.5
	c0.9-1.4,1.4-3.3,1.1-5c-0.6-3.6-4.1-5.9-7.6-5.3c-3.6,0.6-5.9,4.1-5.3,7.6c0.3,2,1.7,3.7,3.4,4.7v-0.3
	C257.3,29.7,258.7,26.9,261.2,26 M309,26.9c0-0.3-0.2-0.5-0.3-0.8c0,0.2,0,0.3,0,0.6c-0.3,2-2,3.4-4.1,3.3c-0.3,0-0.8,0-1.1-0.2
	c0.8,1.1,2,1.6,3.4,1.2C308.7,30.7,309.7,28.8,309,26.9L309,26.9 M317,32.4c-0.5,0-0.6,0.5-0.6,0.9c0,0.3,0.3,0.6,0.6,0.6
	c3.1,0.2,6.1-0.8,8.4-2.8c0.3-0.3,0.6-0.6,0.8-0.9c0.2,0.6,0.5,1.1,0.8,1.7c1.1,1.9,3.1,3,5.3,3c2.5,0,5-1.1,6.5-3.1
	c0.8,2,2.2,3.9,4.1,5.1c1.4,1.1,3.1,1.6,4.8,1.2c1.2-0.3,2.3-0.8,3.4-1.4c0,0.5,0,0.9,0.2,1.2c0.9,2.8,2.8,5.1,5.3,6.5
	c0.3,0.2,0.8,0.2,0.9-0.2l0,0c0.2-0.2,0.2-0.3,0.2-0.5c0-0.3-0.2-0.5-0.3-0.6c-2.2-1.2-3.9-3.1-4.7-5.5c0-0.3,0-0.6,0-0.9
	c0-0.5,0-0.8,0.2-1.2c0.3-0.3,0.6-0.6,0.8-1.1c0.5-0.9,0.2-1.9-0.5-2.2c-0.6-0.3-1.4,0.3-1.7,1.2c-0.2,0.3-0.2,0.6-0.2,0.9
	c-0.9,1.1-2.3,1.7-3.7,2c-1.2,0.2-2.7-0.2-3.7-0.9c-2-1.2-3.4-3.3-3.7-5.6c0.9-0.5,1.6-1.4,1.9-2.3c0.6-1.7,0.5-3.4-0.6-3.9
	c-0.9-0.3-2.3,0.6-3,2.5c-0.5,1.1-0.5,2.3,0,3.4c-1.2,2.2-3.6,3.6-6.1,3.6c-1.7,0-3.3-0.9-4.1-2.3c-0.5-0.8-0.8-1.6-0.9-2.3
	c0.3-0.3,0.6-0.6,0.9-1.1c0.3-0.8-0.2-1.7-0.9-2.2c-0.8-0.3-1.7,0.2-2.2,0.9c-0.3,0.6-0.2,1.4,0.3,2C324.8,30.2,322.6,32.4,317,32.4
	 M382.2,13.8c-3.7-0.3-7.5,0.8-10.4,3.3s-2.3,4.4-2.3,4.8c0,3.3,2.3,7.2-0.2,9.7c-1.2,1.2-2.2,3.1-0.3,3.1c0.8,0,2.5-1.4,4.1-3.7
	c1.6-2.3,1.4-6.7,4.7-11.7C381.1,14.4,381.4,14.6,382.2,13.8 M368.6,37.2c-0.9-1.9-5-3.9-6.2-4.5c-2.2-1.1-3.1,0.8-2.2,1.7
	s3.3,2.3,5,3.7C367.7,40.3,369.4,38.9,368.6,37.2 M365.8,41c0,0-0.2-1.1-0.6-1.1c-1.4,0-1.2,1.2-2.8,2c-0.5,0.2-0.9,0.5-1.4,0.8
	c-0.3,0.3-0.5,0.8-0.8,1.2c-0.5,1.1-0.8,2.3-0.6,3.6c0,1.1-0.5,1.7,0.8,2.5c1.2,0.8,0.6,0,1.6-0.9c0.9-0.9,1.7-2.8,2.8-3.9
	C365.6,43.9,366,42.5,365.8,41 M360.2,41.1c0.3-0.2,0.8,0,1.1-0.2c0.6-0.5,1.1-1.2,1.2-2c0-0.8-0.3-1.9-1.2-1.9
	c-0.9,0.2-1.9,0-2.8-0.3c-1.4-0.6-2.2-0.3-2.8,0.2c-0.6,0.5,0,2.5,0.6,3.1c0.8,0.9,1.9,1.6,3,1.6C359.9,41.6,359.6,41.6,360.2,41.1
	 M347.9,41c-0.2,0.5,0.3,1.1,1.1,1.6c0.8,0.3,1.7,0.3,1.9-0.2c0.2-0.5-0.3-1.2-1.1-1.6C349,40.5,348.2,40.5,347.9,41 M324.3,34.6
	c0,0.5,0.6,1.1,1.4,1.2c0.9,0.2,1.7-0.2,1.7-0.6s-0.6-1.1-1.4-1.2C325.2,33.8,324.3,34.1,324.3,34.6 M336,36.7c-0.2,0.8,0.8,1.6,2,2
	c1.2,0.3,2.5,0,2.7-0.8c0.2-0.8-0.8-1.6-2-2C337.4,35.7,336.3,36,336,36.7 M341.3,20.7c0,0.6,0.2,1.2,0.6,1.2
	c0.5,0.2,0.9-0.3,1.1-0.9s1.4-3.3,1.7-4.2c0-0.2,0.2-0.3,0.2-0.5c0.2-0.9-0.6-1.9-1.6-2c-0.9-0.2-1.7,0.5-2,1.2c0,0.2,0,0.3,0,0.3
	C341.5,17.2,341.5,20.4,341.3,20.7 M336.2,26.1c0.5,0.2,0.9-0.2,1.1-0.5c0-0.3-0.3-0.8-0.8-0.9s-2.8-1.4-3.6-1.7
	c-0.2-0.2-0.3-0.2-0.5-0.2c-0.8-0.2-1.7,0.3-1.9,1.1l0,0c-0.2,0.8,0.3,1.7,1.1,1.9l0,0h0.3C333.2,25.8,335.9,26,336.2,26.1
	 M345.2,28.9c0.3,0,2.7,1.2,3.7,1.9l0.3,0.2c0.8,0.3,1.7-0.2,1.9-1.1c0.3-0.8-0.3-1.7-1.1-2h-0.5c-0.9,0-3.1-0.3-3.9-0.3
	c-0.5-0.2-0.9,0.2-1.1,0.5C344.4,28.3,344.7,28.8,345.2,28.9 M343.5,30.7c0.2,0.2,1.4,2,1.9,2.7l0.2,0.3c0.5,0.5,1.2,0.5,1.9,0
	c0.5-0.5,0.5-1.2,0-1.7l0,0l-0.3-0.2c-0.6-0.5-2.2-1.4-2.7-1.7c-0.3-0.3-0.8-0.3-0.9,0C343.2,30,343.2,30.5,343.5,30.7 M335.7,27.9
	l-3.3,0.5h-0.3c-0.6,0.2-1.1,0.9-0.8,1.6c0.2,0.6,0.9,1.1,1.6,0.8l0,0c0.2,0,0.3-0.2,0.3-0.2c0.6-0.3,2.2-1.2,2.8-1.6
	s0.6-0.6,0.5-0.8C336.3,27.7,336,27.5,335.7,27.9 M345.8,25.8l3.1-0.3h0.3c0.6-0.2,0.9-0.8,0.8-1.2l0,0c-0.3-0.6-0.9-0.9-1.6-0.8
	l-0.3,0.2c-0.6,0.3-2.2,1.1-2.7,1.2c-0.5,0.2-0.6,0.5-0.5,0.8C345.2,25.8,345.5,26,345.8,25.8 M337.1,22.6c-0.2-0.2-1.2-1.9-1.6-2.5
	l-0.2-0.3c-0.5-0.5-1.1-0.5-1.6,0l0,0c-0.5,0.5-0.5,1.1,0.3,1.9c0.8,0.8,1.9,1.4,2.3,1.9c0.5,0.5,0.6,0.3,0.9,0.2
	C337.4,23.3,337.4,23,337.1,22.6 M339.8,21.6c0-0.2-0.2-2.2-0.2-3.1v-0.3c-0.2-0.6-0.6-0.9-1.2-0.8c0,0,0,0-0.2,0
	c-0.6,0.2-0.9,0.8-0.8,1.4l0.2,0.3c0.3,0.6,0.9,2.2,1.2,2.7c0.2,0.5,0.5,0.6,0.8,0.6C339.6,22.4,339.8,22.1,339.8,21.6 M344.6,23.3
	l2.7-2c0.5-0.5,0.5-1.1,0-1.6l0,0c-0.5-0.5-1.2-0.3-1.9,0.5c-0.6,0.8-1.2,2-1.6,2.5c-0.3,0.5-0.3,0.8,0,0.9
	C344,23.8,344.3,23.6,344.6,23.3 M319.2,13.4c-4.8,0-5.9,6.9-3.9,6.9c4.7-0.3,4.2,0,5.1,1.6c0.8,0.9,0.6,2.3-0.3,3.1
	c-0.2,0.2-0.3,0.3-0.5,0.3c2.2,1.4,5-2.3,5-5S323.7,13.4,319.2,13.4 M314.3,4.8c-1.1-1.2-2-2.5-3-2.5c-0.9,0-1.9,1.1-3,2.5
	c-0.9,0.9-1.6,2.2-1.9,3.6c0.2,2.2,0.6,4.5,1.4,6.5c0.5,1.2,0.9,2.5,1.6,3.9c0.5,1.7,0.9,1.9,1.9,1.9c0.9,0,1.4,0,1.9-1.9
	c0.6-1.4,1.1-2.7,1.6-3.9c0.8-2.2,1.2-4.4,1.4-6.5C315.9,7,315.3,5.7,314.3,4.8 M361.6,26.1c2.7,0.9,4.1,3.7,3.3,6.4v0.3
	c1.9-0.9,3.1-2.7,3.6-4.7c0.6-3.6-1.7-7-5.3-7.6c-3.6-0.6-7,1.7-7.6,5.3c-0.3,1.7,0,3.4,1.1,5C356.8,28,358.9,26,361.6,26.1
	 M307.2,24.3c0,0.9,0.8,1.6,1.6,1.6l0,0h5.3c0.9,0,1.6-0.8,1.6-1.6l0,0c0-0.9-0.8-1.7-1.6-1.7h-5.3
	C307.9,22.7,307.2,23.3,307.2,24.3 M311.4,29.6l-2.8,4.4l2.8,4.7l2.8-4.7L311.4,29.6z M266.6,58.6c-2.2,1.1-3.1,3.6-2.2,5.9
	c1.1,2.2,3.6,3.1,5.9,2.2c26-12.5,56.3-12.5,82.3,0c2.2,1.1,4.8,0,5.9-2.2c1.1-2.2,0-4.8-2.2-5.9l0,0C327.9,45,295,45,266.6,58.6
	 M314.3,41.9c0-1.1-1.2-1.9-2.8-1.9s-2.8,0.8-2.8,1.9s1.2,1.9,2.8,1.9S314.3,42.8,314.3,41.9 M254.5,37.4c-0.9,1.7,0.9,3.1,3.6,0.9
	c1.7-1.4,4.1-3,5-3.7s0-2.7-2.2-1.7C259.3,33.5,255.4,35.7,254.5,37.4 M287,26.4c0.3,0,3-0.3,4.1-0.3h0.3c0.8-0.2,1.4-1.1,1.1-1.9
	l0,0c-0.2-0.8-1.1-1.4-1.9-1.1l0,0c-0.2,0-0.3,0.2-0.5,0.2c-0.8,0.3-2.8,1.4-3.6,1.7c-0.8,0.3-0.8,0.6-0.8,0.9
	C286,26.3,286.4,26.6,287,26.4 M287.4,28c-0.3-0.2-0.8,0-0.9,0.3c0,0.3,0.2,0.8,0.5,0.8c0.6,0.3,2.2,1.2,2.8,1.6
	c0.2,0,0.2,0.2,0.3,0.2c0.6,0.2,1.4-0.2,1.6-0.8l0,0c0.2-0.6-0.2-1.4-0.8-1.6L287.4,28 M285.8,22.9c-0.3,0.3-0.3,0.8-0.2,0.9
	c0.2,0.2,0.6,0.2,0.9-0.2c0.3-0.3,1.9-1.4,2.3-1.9c0.5-0.5,0.8-1.4,0.3-1.9s-1.1-0.5-1.6,0l0,0C287,20.8,286,22.6,285.8,22.9
	 M283.5,21.6c0,0.5,0,0.8,0.3,0.9c0.3,0.2,0.6-0.2,0.8-0.6c0.2-0.5,0.9-2.2,1.2-2.7L286,19c0.2-0.6-0.2-1.2-0.8-1.4
	c-0.6-0.2-1.1,0.2-1.2,0.8c0,0,0,0,0,0.2C283.6,19.4,283.5,21.5,283.5,21.6 M314,27.1c-0.6,1.7,0.2,3.7,1.9,4.4c0,0,0,0,0.2,0
	c1.2,0.3,2.7-0.2,3.4-1.2c-0.3,0.2-0.8,0.2-1.1,0.2c-2,0.2-3.7-1.2-4.1-3.3c0-0.2,0-0.3,0-0.6C314,26.6,314,26.9,314,27.1 M227,71.2
	l0.2,81.9h169.5V70.9L227,71.2z"/>
<path class="st0" d="M275,120.6h-10c-0.3,0-0.6-0.3-0.6-0.6c0-0.2,0-0.3,0.2-0.5l5.3-5.3c0.2-0.2,0.5-0.3,0.6-0.3
	c0.3,0,0.6,0.2,0.8,0.3l4.2,5.3c0.2,0.2,0.2,0.3,0.2,0.5C275.8,120.3,275.5,120.6,275,120.6 M231.5,75.1h161.1V149H231.5V75.1z
	 M309,138.4c-1.4,0-2.8-2-2.8-4.5V88.7c0-2.5,1.4-4.5,2.8-4.5c0.8,0.2,1.4-0.5,1.4-1.1c0.2-0.8-0.5-1.4-1.1-1.4c-0.2,0-0.2,0-0.3,0
	h-10.6c-0.5,0-0.9,0.2-1.1,0.5l-22.1,22.6l-18.1-22.6c-0.3-0.3-0.6-0.6-1.1-0.6h-10.9c-0.8-0.2-1.4,0.5-1.4,1.1
	c-0.2,0.8,0.5,1.4,1.1,1.4c0.2,0,0.2,0,0.3,0c1.4,0,2.8,2,2.8,4.5v45.2c0,2.5-1.4,4.5-2.8,4.5c-0.8-0.2-1.4,0.3-1.6,1.1
	c-0.2,0.8,0.3,1.4,1.1,1.6c0.2,0,0.3,0,0.5,0h8.4c0.8,0.2,1.4-0.3,1.6-1.1c0.2-0.8-0.3-1.4-1.1-1.6c-0.2,0-0.3,0-0.5,0
	c-1.1,0-1.9-1.2-1.9-2.7v-46l17.5,21.7l-10,10.1c-0.3,0.3-0.5,0.6-0.5,1.1c0,0.8,0.6,1.6,1.6,1.6h27.4c0.8,0,1.6-0.6,1.6-1.6
	c0-0.5-0.2-0.8-0.5-1.1l-11.7-14.5l20-20.4v49.1c0,1.4-0.9,2.7-1.9,2.7c-0.8-0.2-1.4,0.3-1.6,1.1c-0.2,0.8,0.3,1.4,1.1,1.6
	c0.2,0,0.3,0,0.5,0h14c0.8,0.2,1.4-0.3,1.6-1.1c0.2-0.8-0.3-1.4-1.1-1.6C309.3,138.4,309.2,138.4,309,138.4 M379.4,138.4
	c-1.4,0-2.8-2-2.8-4.5V88.7c0-2.5,1.4-4.5,2.8-4.5c0.8,0.2,1.4-0.5,1.4-1.1c0.2-0.8-0.5-1.4-1.1-1.4c-0.2,0-0.2,0-0.3,0h-14
	c-0.8-0.2-1.4,0.5-1.4,1.1c-0.2,0.8,0.5,1.4,1.1,1.4c0.2,0,0.2,0,0.3,0c1.1,0,1.9,0.9,1.9,2.5v13.4h-38.7V86.6
	c0-1.4,0.9-2.5,1.9-2.5c0.8,0.2,1.4-0.5,1.4-1.1c0.2-0.8-0.5-1.4-1.1-1.4c-0.2,0-0.2,0-0.3,0h-14c-0.8-0.2-1.4,0.5-1.4,1.1
	c-0.2,0.8,0.5,1.4,1.1,1.4c0.2,0,0.2,0,0.3,0c1.4,0,2.8,2,2.8,4.5v45.2c0,2.5-1.4,4.5-2.8,4.5c-0.8-0.2-1.4,0.3-1.6,1.1
	c-0.2,0.8,0.3,1.4,1.1,1.6c0.2,0,0.3,0,0.5,0h14c0.8,0.2,1.4-0.3,1.6-1.1c0.2-0.8-0.3-1.4-1.1-1.6c-0.2,0-0.3,0-0.5,0
	c-1.1,0-1.9-1.2-1.9-2.7v-32.3h38.7v32.3c0,1.4-0.9,2.7-1.9,2.7c-0.8-0.2-1.4,0.3-1.6,1.1c-0.2,0.8,0.3,1.4,1.1,1.6
	c0.2,0,0.3,0,0.5,0h14c0.8,0.2,1.4-0.3,1.6-1.1c0.2-0.8-0.3-1.4-1.1-1.6C379.5,138.4,379.4,138.4,379.4,138.4 M307.9,112.5
	c0,2.5,2,4.5,4.5,4.5c2.5,0,4.5-2,4.5-4.5s-2-4.5-4.5-4.5l0,0C310.1,108,308.1,110,307.9,112.5L307.9,112.5"/>
<path class="st0" d="M324.3,42.2c0.3-1.7,2.5-2.7,4.7-2.2c2.3,0.5,4.1,2.2,3.7,3.7c-0.3,1.6-2.5,2.7-4.8,2.2
	C325.7,45.5,324,43.8,324.3,42.2 M327.7,42.8c0,1.1,0.8,1.9,1.9,2c1.1,0,1.9-0.8,2-1.9c0-1.1-0.8-1.9-1.9-2l0,0
	C328.7,41,327.7,41.7,327.7,42.8L327.7,42.8"/>
<path class="st0" d="M341.3,45.9c0.5-1.6,2.8-2.2,5-1.6c2.3,0.6,3.6,2.7,3.1,4.2s-2.8,2.2-5,1.6C342.1,49.5,340.7,47.5,341.3,45.9
	 M348.3,47.3c-0.2-1.1-1.2-1.7-2.2-1.6s-1.6,1.1-1.6,2c0.2,1.1,1.2,1.7,2.2,1.6C347.7,49.2,348.5,48.4,348.3,47.3"/>
<path class="st0" d="M353.9,52.2c-0.6,1.2-0.5,2.7,0.5,3c0.8,0.3,1.9-0.3,2.5-1.6c0.6-1.2,0.5-2.7-0.3-3
	C355.7,50.3,354.4,50.9,353.9,52.2"/>
<path class="st0" d="M19.4,240.6l6.7-7l5.3,7H19.4z M60.3,257.4c-1.9,0-3.4-1.6-3.4-3.4l0,0v-43.8c0-1.9,1.4-3.3,3.3-3.3
	c0.5-0.2,0.9-0.6,0.8-1.1c0-0.5-0.3-0.8-0.8-0.8H49.7c-0.5,0-0.8,0.2-1.1,0.5L29,225.9l-15.4-20.3c-0.3-0.3-0.6-0.6-1.1-0.6H0.9
	c-0.5,0.2-0.9,0.6-0.8,1.1c0,0.5,0.3,0.8,0.8,0.8c1.7,0,3,1.4,3,3l0,0v44.6c0,1.6-1.2,2.8-2.8,2.8l0,0c-0.6,0-1.1,0.5-1.1,1.1
	c0,0.6,0.5,1.1,1.1,1.1h8.6c0.6,0,1.1-0.5,1.1-1.1c0-0.6-0.5-1.1-1.1-1.1c-1.4,0-2.5-1.1-2.5-2.5l0,0V210l16.4,21.5l-11.7,12.2h31
	l-12.3-16.1l18.1-18.9v45.4c0,1.7-1.4,3.1-3.1,3.1l0,0c-0.6,0-1.1,0.5-1.1,1.1c0,0.6,0.5,1.1,1.1,1.1h14.8c0.6,0,1.1-0.5,1.1-1.1
	C61.4,257.7,60.9,257.6,60.3,257.4"/>
<path class="st0" d="M75.6,257.4c-1.1,0-1.9-0.8-1.9-1.9l0,0v-46.5c0-1.1,0.9-2,2-2h0.2c0.5,0.2,0.9-0.3,1.1-0.8s-0.3-0.9-0.8-1.1
	c-0.2,0-0.2,0-0.3,0H64.5c-0.5,0-0.9,0.5-0.9,0.9l0,0c0,0.5,0.5,0.9,0.9,0.9c1.1,0,2,0.9,2,2v46.8c0,0.9-0.8,1.9-1.9,1.9l0,0
	c-0.6,0-1.1,0.5-1.1,1.1c0,0.6,0.5,1.1,1.1,1.1h11.1c0.6,0,1.1-0.5,1.1-1.1C76.8,258.2,76.2,257.4,75.6,257.4"/>
<path class="st0" d="M523.9,257.4c-1.1,0-1.9-0.8-2-1.9l0,0v-46.5c0-1.1,0.9-2,2-2c0.5,0.2,0.9-0.3,1.1-0.8s-0.3-0.9-0.8-1.1
	c-0.2,0-0.2,0-0.3,0h-11.4c-0.5,0-0.9,0.5-0.9,0.9l0,0c0,0.5,0.5,0.9,0.9,0.9l0,0c1.1,0,2,0.9,2,2l0,0v46.8c0,0.9-0.8,1.9-1.9,1.9
	l0,0c-0.6,0-1.1,0.5-1.1,1.1c0,0.6,0.5,1.1,1.1,1.1h11.1c0.6,0,1.1-0.5,1.1-1.1C524.9,258.2,524.4,257.4,523.9,257.4"/>
<path class="st0" d="M130.8,205h-5.9c-0.5,0-0.9,0.5-0.9,0.9c0,0.5,0.3,0.9,0.8,0.9l0,0c0.6,0,1.1,0.5,1.1,1.1v34.6
	c-12-21.8-16.1-18.2-27.3-27.4c-9.4-7.6-5.8-10.1-8.6-10.1H79.8c-0.5-0.2-0.9,0.3-1.1,0.8s0.3,0.9,0.8,1.1c0.2,0,0.2,0,0.3,0l0,0
	c1.1,0,1.9,0.9,1.9,2v46.2c0,1.2-0.9,2.2-2.2,2.2c-0.6,0-1.1,0.5-1.1,1.1c0,0.6,0.5,1.1,1.1,1.1h7.2c0.6,0,1.1-0.5,1.1-1.1
	c0-0.6-0.5-1.1-1.1-1.1h-0.2c-0.9,0-1.7-0.9-1.7-1.9v-41.8c4.1,9.8,13.1,14.5,17.2,17c10.8,5.8,23.5,14.7,25.3,27.1h1.7v-49
	c0-1.1,0.8-1.9,1.9-1.9l0,0c0.5,0.2,0.9-0.3,1.1-0.8c0.2-0.5-0.3-0.9-0.8-1.1C130.9,205,130.8,205,130.8,205"/>
<path class="st0" d="M283.6,205h-5.9c-0.5,0-0.9,0.5-0.9,0.9c0,0.5,0.5,0.9,0.9,0.9l0,0c0.6,0,1.1,0.5,1.1,1.1l0,0v34.6
	c-12-21.7-16.2-18.1-27.4-27.3c-9.4-7.6-5.8-10.1-8.6-10.1h-10.1c-0.5,0.2-0.9,0.6-0.8,1.1c0,0.5,0.3,0.8,0.8,0.8h0.2
	c1.1,0,1.9,0.9,1.9,2v46.2c0,1.2-0.9,2.2-2.2,2.2c-0.6,0-1.1,0.5-1.1,1.1c0,0.6,0.5,1.1,1.1,1.1h7.2c0.6,0,1.1-0.5,1.1-1.1
	c0-0.6-0.5-1.1-1.1-1.1h-0.2c-0.9,0-1.7-0.9-1.7-1.9v-41.8c4.2,9.8,13.3,14.5,17.2,17c10.9,5.8,23.5,14.7,25.3,27.1h1.7v-49
	c0-1.1,0.8-1.9,1.9-1.9l0,0c0.5-0.2,0.9-0.6,0.8-1.1C284.4,205.5,284.1,205.2,283.6,205"/>
<path class="st0" d="M579.4,205h-5.9c-0.5,0-0.9,0.5-0.9,0.9c0,0.5,0.5,0.9,0.9,0.9l0,0c0.6,0,1.1,0.5,1.1,1.1l0,0v34.6
	c-12-21.7-16.2-18.1-27.4-27.3c-9.4-7.6-5.8-10.1-8.6-10.1h-10.3c-0.5-0.2-0.9,0.3-1.1,0.8c-0.2,0.5,0.3,0.9,0.8,1.1
	c0.2,0,0.2,0,0.3,0l0,0c1.1,0,1.9,0.9,1.9,2v46.2c0,1.2-0.9,2.2-2.2,2.2c-0.6,0-1.1,0.5-1.1,1.1c0,0.6,0.5,1.1,1.1,1.1h7.2
	c0.6,0,1.1-0.5,1.1-1.1c0-0.6-0.5-1.1-1.1-1.1H535c-0.9,0-1.7-0.9-1.7-1.9v-41.8c4.1,9.8,13.1,14.5,17.2,17
	c10.8,5.8,23.5,14.7,25.3,27.1h1.7v-49c0-1.1,0.8-1.9,1.9-1.9l0,0c0.5,0.2,0.9-0.3,1.1-0.8c0.2-0.5-0.3-0.9-0.8-1.1
	C579.6,205,579.4,205,579.4,205"/>
<path class="st0" d="M184,205.6L184,205.6c-5-1.1-18.9-0.6-24.8-0.6c-5.9,0-19.8-0.5-24.8,0.6l0,0c-0.2,0-0.2,0.2-0.2,0.2l0,0l0,0
	l3.9,8.4c0,0,0,0,0.2,0c0,0,0,0,0.2,0c3.1-5.8,7.8-6.5,12.6-6.5h3.9c0.2,0.3,0.3,0.6,0.3,1.1v46.8c0,0.9-0.8,1.9-1.9,1.9l0,0
	c-0.6,0-1.1,0.5-1.1,1.1c0,0.6,0.5,1.1,1.1,1.1h11.1c0.6,0,1.1-0.5,1.1-1.1c0-0.6-0.5-1.1-1.1-1.1c-1.1,0-1.9-0.8-1.9-1.9l0,0v-46.3
	c0-0.5,0.2-0.8,0.3-1.2h4.4c4.8,0,9.7,0.8,12.6,6.5 M180.1,214.4L180.1,214.4l3.9-8.4l0,0c0-0.2,0-0.2-0.2-0.2l0,0"/>
<path class="st0" d="M182.9,233.5c0.6,13.6,9.7,24.2,20.3,23.9s18.7-11.9,18.1-25.4c-0.6-13.6-9.7-24.2-20.3-23.9
	S182.2,220,182.9,233.5 M202.2,205.3c15.1,0,27.4,12.3,27.3,27.4c0,15.1-12.3,27.4-27.4,27.3c-15.1,0-27.3-12.3-27.3-27.4
	C174.8,217.6,187.1,205.3,202.2,205.3"/>
<path class="st0" d="M376.4,233.5c0.6,13.6,9.7,24.2,20.3,23.9s18.7-11.9,18.1-25.4c-0.6-13.6-9.7-24.2-20.3-23.9
	C384,208.4,375.9,220,376.4,233.5 M395.7,205.3c15.1,0,27.3,12.3,27.3,27.4c0,15.1-12.3,27.3-27.4,27.3c-15.1,0-27.3-12.3-27.3-27.4
	C368.4,217.6,380.8,205.3,395.7,205.3C395.9,205.3,395.9,205.3,395.7,205.3"/>
<path class="st0" d="M366.1,257.4c-1.1,0-1.9-0.8-1.9-1.9l0,0v-46.5c0-1.1,0.9-2,2-2l0,0c0.5,0.2,0.9-0.3,1.1-0.8s-0.3-0.9-0.8-1.1
	c-0.2,0-0.2,0-0.3,0H355c-0.5,0-0.9,0.5-0.9,0.9l0,0c0,0.5,0.5,0.9,0.9,0.9c1.1,0,2,0.9,2,2v10.6h-36.2v-10.4c0-1.2,1.1-2,2.2-2
	c0.5,0.2,0.9-0.3,1.1-0.8c0.2-0.5-0.3-0.9-0.8-1.1c-0.2,0-0.2,0-0.3,0h-11.2c-0.5,0-0.9,0.5-0.9,0.9l0,0c0,0.5,0.5,0.9,0.9,0.9
	c1.1,0,1.9,0.9,1.9,1.9l0,0v46.8c0,0.9-0.8,1.9-1.9,1.9l0,0c-0.6,0-1.1,0.5-1.1,1.1s0.5,1.1,1.1,1.1h11.1c0.6,0,1.1-0.5,1.1-1.1
	s-0.5-1.1-1.1-1.1c-1.1,0-1.9-0.8-2-1.9l0,0V224h36.2v32c0,0.9-0.8,1.9-1.9,1.9c-0.6,0-1.1,0.5-1.1,1.1c0,0.6,0.5,1.1,1.1,1.1h11.1
	c0.6,0,1.1-0.5,1.1-1.1C367.4,258.3,366.7,257.4,366.1,257.4"/>
<path class="st0" d="M463.6,259.3C463.7,259.1,463.7,259.1,463.6,259.3l-3.6-7.8c0,0-0.6-1.7-1.7-0.6c-1.1,1.1-9.4,5.3-21.4,5.3
	c-3.4,0-3.9-1.1-3.9-2.2v-44.8c0-1.1,0.9-2,2-2c0.5,0.2,0.9-0.3,1.1-0.8c0.2-0.5-0.3-0.9-0.8-1.1c-0.2,0-0.2,0-0.3,0h-10.9
	c-0.5,0-0.9,0.5-0.9,0.9l0,0c0,0.5,0.5,0.9,0.9,0.9c1.1,0,2,0.9,2,2l0,0V256c0,0.9-0.8,1.9-1.9,1.9c-0.6,0-1.1,0.5-1.1,1.1
	c0,0.6,0.5,1.1,1.1,1.1h39C463.4,259.6,463.6,259.4,463.6,259.3"/>
<path class="st0" d="M508.8,259.3C508.8,259.1,508.8,259.1,508.8,259.3l-3.6-7.8c0,0-0.6-1.7-1.7-0.6c-1.1,1.1-9.4,5.3-21.2,5.3
	c-3.4,0-3.7-1.1-3.7-2.2v-44.8c0-1.1,0.9-2,2-2l0,0c0.5,0.2,0.9-0.3,1.1-0.8c0.2-0.5-0.3-0.9-0.8-1.1c-0.2,0-0.2,0-0.3,0h-11.2
	c-0.5,0-0.9,0.5-0.9,0.9l0,0c0,0.5,0.5,0.9,0.9,0.9c1.1,0,2,0.9,2,2l0,0V256c0,0.9-0.8,1.9-1.9,1.9c-0.6,0-1.1,0.5-1.1,1.1
	c0,0.6,0.5,1.1,1.1,1.1h39.1C508.6,259.6,508.8,259.4,508.8,259.3L508.8,259.3"/>
<path class="st0" d="M588.8,213.7c-0.3,18.7,28.2,16.8,27.9,31.5c-0.2,12.2-22.5,14.3-28.8,2.2l-6.4,9.7c5,2.2,10.3,3.3,15.8,3.4
	c11.9,0.2,26.2-5.6,26.4-17.6c0.2-11.5-9.2-17.6-17.3-21.2c-7-3.1-12.9-4.1-12.8-9.5c0.2-6.1,4.7-7.8,9-7.6c4.2,0,7.6,3.6,7.6,7.8
	c0,0.5,0,0.9-0.2,1.4l8.3-10c-8,1.7-11.1-1.9-17.2-2C594.6,201.9,589.1,207,588.8,213.7"/>
</svg>
